<svg width="32" height="50" viewBox="0 0 32 50" fill="none" xmlns="http://www.w3.org/2000/svg">
<path d="M0 33.3684V24.421H31.4737V33.3684C31.4737 37.7193 29.9298 41.4386 26.8421 44.5263C23.7544 47.614 20.0351 49.1579 15.6842 49.1579C11.3333 49.1579 7.63158 47.614 4.57895 44.5263C1.52632 41.4386 0 37.7193 0 33.3684ZM24.9474 7.26313C26.9825 8.73682 28.5789 10.5789 29.7368 12.7894C30.8947 15 31.4737 17.3684 31.4737 19.8947V22.2105H0V19.8947C0 17.3684 0.578947 15 1.73684 12.7894C2.89474 10.5789 4.45614 8.73682 6.42105 7.26313L1.78947 2.52629L3.57895 0.736816L8.73684 5.89471C10.9825 4.7719 13.2982 4.2105 15.6842 4.2105C18.0702 4.2105 20.386 4.7719 22.6316 5.89471L27.8947 0.736816L29.6842 2.52629L24.9474 7.26313ZM9 17.6842C9.59649 17.6842 10.1228 17.4561 10.5789 17C11.0351 16.5438 11.2632 16.0175 11.2632 15.421C11.2632 14.8245 11.0351 14.2982 10.5789 13.8421C10.1228 13.3859 9.59649 13.1579 9 13.1579C8.40351 13.1579 7.87719 13.3859 7.42105 13.8421C6.96491 14.2982 6.73684 14.8245 6.73684 15.421C6.73684 16.0175 6.96491 16.5438 7.42105 17C7.87719 17.4561 8.40351 17.6842 9 17.6842ZM22.4737 17.6842C23.0702 17.6842 23.5965 17.4561 24.0526 17C24.5088 16.5438 24.7368 16.0175 24.7368 15.421C24.7368 14.8245 24.5088 14.2982 24.0526 13.8421C23.5965 13.3859 23.0702 13.1579 22.4737 13.1579C21.8772 13.1579 21.3509 13.3859 20.8947 13.8421C20.4386 14.2982 20.2105 14.8245 20.2105 15.421C20.2105 16.0175 20.4386 16.5438 20.8947 17C21.3509 17.4561 21.8772 17.6842 22.4737 17.6842Z" fill="white"/>
</svg>
