<svg width="96" height="35" viewBox="0 0 96 35" fill="none" xmlns="http://www.w3.org/2000/svg">
<g clip-path="url(#clip0_994_14808)">
<path d="M20.2085 17.7195C20.2085 20.4224 17.222 20.0142 17.222 20.0142H5.38062C3.52901 20.0142 3.10593 18.5558 3.10593 17.2268V15.2608L0 17.7296V18.4164C0 21.7861 1.68238 23.0056 5.44035 23.0056H18.5161C21.0446 23.0056 23.2994 21.2785 23.2994 18.8047V12.334L20.2085 15.3005V17.7195Z" fill="#231F20"/>
<path d="M24.7134 23.0157H27.8592V8.52637L24.7134 11.483V23.0157Z" fill="#231F20"/>
<path d="M31.393 21.2189C31.393 23.2098 30.308 24.3048 28.2373 24.3048L30.2631 27.3461C31.4129 27.3461 34.5537 26.5248 34.5537 20.9551V12.0952L31.393 15.2609V21.2189Z" fill="#231F20"/>
<path d="M39.6551 23.0208H44.8216C45.4108 23.0509 45.9987 22.9422 46.5382 22.7036C47.0776 22.465 47.5535 22.1031 47.9276 21.647C48.5991 20.8005 48.942 19.7399 48.8932 18.6605V12.8369L45.7425 15.7537V17.8043C45.7425 19.2743 45.2115 20.0093 44.1496 20.0093H38.9731C38.9731 20.0093 39.008 18.5162 39.008 17.67V8.29248L35.8374 11.254V19.3075C35.8374 21.783 37.11 23.0208 39.6551 23.0208Z" fill="#231F20"/>
<path d="M50.1875 23.0159H53.3383V8.3623L50.1875 11.1497V23.0159Z" fill="#231F20"/>
<path d="M51.6414 4.13623C46.9776 4.13623 45.7432 7.277 45.7432 8.42678L48.8789 10.4177C48.8789 8.34714 49.4016 7.31183 51.3677 7.31183H54.4586L57.6243 4.15116L51.6414 4.13623Z" fill="#231F20"/>
<path d="M10.6667 12.1001H3.08105V15.2508H13.6283L10.6667 12.1001Z" fill="#231F20"/>
<path d="M45.4889 28.267L48.132 25.7783C48.1021 25.7385 48.0822 25.6987 48.0523 25.6639C47.6783 25.2077 47.2024 24.8458 46.6629 24.6072C46.1235 24.3686 45.5355 24.26 44.9464 24.2901H36.2856L39.4861 27.2766H43.9012C44.2278 27.2945 44.5447 27.3947 44.8222 27.5678C45.0998 27.741 45.3292 27.9816 45.4889 28.267Z" fill="#231F20"/>
<path d="M41.7808 27.7793H43.7717C44.0451 27.7961 44.3101 27.8797 44.5437 28.023C44.7771 28.1661 44.9718 28.3645 45.1107 28.6005L43.9012 29.82L41.7808 27.7793Z" fill="#231F20"/>
<path d="M76.6527 0.995526L73.5369 0.179224C72.187 -0.179088 70.7501 0.0134325 69.5423 0.714441C68.3344 1.41545 67.4544 2.56754 67.0959 3.91728L66.3096 6.86891C68.883 3.66476 72.5826 1.56393 76.6527 0.995526Z" fill="#231F20"/>
<path d="M62.935 19.5762L62.1685 22.4631C61.8102 23.8129 62.0026 25.2497 62.7036 26.4576C63.4047 27.6655 64.5568 28.5454 65.9065 28.9039L68.893 29.7003C65.7052 27.1943 63.578 23.5798 62.935 19.5762Z" fill="#231F20"/>
<path d="M92.0828 5.1019L88.728 4.21094C90.4207 5.51297 91.8379 7.13823 92.8974 8.99238C93.9573 10.8465 94.6379 12.8926 94.9004 15.012L95.8211 11.5278C96.1745 10.1801 95.9795 8.74705 95.2792 7.54262C94.5789 6.3382 93.4292 5.46055 92.0828 5.1019Z" fill="#231F20"/>
<path d="M81.2471 32.9807L84.4575 33.8467C85.8073 34.2051 87.2442 34.0126 88.452 33.3115C89.6599 32.6105 90.5399 31.4585 90.8984 30.1087L91.8043 26.7041C89.25 30.1061 85.4559 32.3618 81.2471 32.9807Z" fill="#231F20"/>
<path d="M78.9967 2.25977C76.0798 2.25977 73.2284 3.12473 70.8031 4.74528C68.3777 6.36584 66.4875 8.66918 65.3712 11.3641C64.2549 14.0589 63.9629 17.0243 64.5319 19.8852C65.101 22.746 66.5056 25.3739 68.5681 27.4365C70.6307 29.4991 73.2587 30.9037 76.1195 31.4727C78.9804 32.0418 81.9457 31.7497 84.6407 30.6335C87.3355 29.5172 89.6388 27.6269 91.2594 25.2016C92.88 22.7763 93.7449 19.9249 93.7449 17.0079C93.7449 13.0965 92.1911 9.34523 89.4253 6.57941C86.6595 3.81359 82.9082 2.25977 78.9967 2.25977ZM70.6445 9.6164C70.8023 8.79877 71.1989 8.04622 71.7842 7.45393C72.3695 6.86163 73.1174 6.45618 73.9331 6.28885C74.7488 6.12151 75.5959 6.19979 76.3671 6.51378C77.1384 6.82779 77.7992 7.36342 78.2661 8.05295C78.733 8.74249 78.985 9.555 78.9902 10.3877C78.9953 11.2204 78.7535 12.036 78.2952 12.7312C77.8369 13.4265 77.1828 13.9703 76.4155 14.2939C75.6482 14.6175 74.8022 14.7063 73.9845 14.5491C73.4412 14.4446 72.9238 14.2342 72.462 13.9297C72.0001 13.6253 71.6027 13.2328 71.2924 12.7747C70.9823 12.3167 70.7655 11.802 70.6543 11.26C70.5431 10.7182 70.5398 10.1596 70.6445 9.6164ZM76.7718 22.3587C76.6132 23.1759 76.2159 23.9278 75.6301 24.5194C75.0444 25.1109 74.2965 25.5156 73.4808 25.6822C72.6652 25.8488 71.8185 25.7699 71.0476 25.4556C70.2768 25.1411 69.6165 24.6053 69.1501 23.9157C68.6837 23.2262 68.4321 22.4138 68.4272 21.5814C68.4223 20.7489 68.6642 19.9337 69.1224 19.2386C69.5807 18.5437 70.2346 18 71.0016 17.6766C71.7687 17.353 72.6144 17.2642 73.4319 17.4211C73.9757 17.5254 74.4935 17.7361 74.9558 18.0409C75.4181 18.3457 75.8157 18.7386 76.1259 19.1972C76.4362 19.6558 76.6529 20.1712 76.7637 20.7136C76.8746 21.2561 76.8773 21.8152 76.7718 22.3587ZM78.5587 18.9491C78.1958 18.8789 77.8618 18.7028 77.5988 18.443C77.3358 18.1832 77.1557 17.8513 77.0811 17.4892C77.0066 17.1272 77.0409 16.7512 77.1797 16.4086C77.3187 16.066 77.5559 15.7722 77.8615 15.5643C78.1671 15.3563 78.5275 15.2437 78.8972 15.2403C79.2668 15.2369 79.6292 15.3431 79.9385 15.5454C80.2479 15.7477 80.4904 16.0372 80.6356 16.3772C80.7806 16.7172 80.8217 17.0926 80.7538 17.4559C80.7084 17.6984 80.6155 17.9296 80.4804 18.1361C80.3454 18.3426 80.1708 18.5203 79.9668 18.6592C79.7628 18.7979 79.5334 18.8949 79.2917 18.9447C79.0501 18.9945 78.801 18.996 78.5587 18.9491ZM87.3439 24.3895C87.1862 25.2071 86.7896 25.9597 86.2043 26.552C85.6189 27.1443 84.8711 27.5497 84.0554 27.7171C83.2397 27.8844 82.3926 27.8062 81.6213 27.4922C80.8501 27.1781 80.1892 26.6425 79.7223 25.953C79.2555 25.2635 79.0036 24.4509 78.9983 23.6182C78.9932 22.7856 79.235 21.9699 79.6933 21.2747C80.1515 20.5794 80.8057 20.0356 81.573 19.7121C82.3403 19.3884 83.1863 19.2997 84.004 19.4569C84.5473 19.5613 85.0647 19.7717 85.5266 20.0762C85.9885 20.3806 86.3858 20.7731 86.696 21.2312C87.0062 21.6892 87.223 22.2039 87.3342 22.7459C87.4454 23.2878 87.4487 23.8463 87.3439 24.3895ZM84.5566 16.5848C83.7389 16.4272 82.9863 16.0306 82.394 15.4452C81.8017 14.8599 81.3962 14.1121 81.229 13.2964C81.0617 12.4806 81.1399 11.6335 81.4539 10.8622C81.7679 10.0911 82.3036 9.43022 82.9931 8.96331C83.6826 8.49643 84.4951 8.24447 85.3278 8.2393C86.1605 8.23413 86.9761 8.47595 87.6713 8.93423C88.3667 9.39253 88.9104 10.0466 89.234 10.814C89.5576 11.5812 89.6463 12.4272 89.4892 13.245C89.3853 13.7887 89.1753 14.3066 88.8711 14.7691C88.5669 15.2316 88.1745 15.6294 87.7164 15.9401C87.2582 16.2508 86.7434 16.4681 86.2011 16.5796C85.659 16.6911 85.1001 16.6945 84.5566 16.5898V16.5848Z" fill="#ED145B"/>
</g>
<defs>
<clipPath id="clip0_994_14808">
<rect width="96" height="34.0312" fill="white"/>
</clipPath>
</defs>
</svg>
