<svg width="26" height="26" viewBox="0 0 26 26" fill="none" xmlns="http://www.w3.org/2000/svg">
<path d="M13 7.25C11.8628 7.25 10.7511 7.58723 9.80547 8.21905C8.85989 8.85087 8.1229 9.74889 7.68769 10.7996C7.25249 11.8502 7.13862 13.0064 7.36049 14.1218C7.58235 15.2372 8.12998 16.2617 8.93414 17.0659C9.73829 17.87 10.7628 18.4177 11.8782 18.6395C12.9936 18.8614 14.1498 18.7475 15.2004 18.3123C16.2511 17.8771 17.1491 17.1401 17.781 16.1945C18.4128 15.2489 18.75 14.1372 18.75 13C18.7483 11.4755 18.1419 10.014 17.064 8.93604C15.986 7.85807 14.5245 7.25172 13 7.25ZM13 17.25C12.1594 17.25 11.3377 17.0007 10.6388 16.5337C9.93992 16.0668 9.39518 15.403 9.07351 14.6264C8.75184 13.8498 8.66768 12.9953 8.83166 12.1709C8.99565 11.3464 9.40042 10.5892 9.9948 9.9948C10.5892 9.40042 11.3464 8.99565 12.1709 8.83166C12.9953 8.66768 13.8498 8.75184 14.6264 9.07351C15.403 9.39518 16.0668 9.93992 16.5337 10.6388C17.0007 11.3377 17.25 12.1594 17.25 13C17.2487 14.1268 16.8005 15.207 16.0038 16.0038C15.207 16.8005 14.1268 17.2487 13 17.25ZM18.5 0.75H7.5C5.71042 0.752051 3.99472 1.46387 2.72929 2.72929C1.46387 3.99472 0.752051 5.71042 0.75 7.5V18.5C0.752051 20.2896 1.46387 22.0053 2.72929 23.2707C3.99472 24.5361 5.71042 25.2479 7.5 25.25H18.5C20.2896 25.2479 22.0053 24.5361 23.2707 23.2707C24.5361 22.0053 25.2479 20.2896 25.25 18.5V7.5C25.2479 5.71042 24.5361 3.99472 23.2707 2.72929C22.0053 1.46387 20.2896 0.752051 18.5 0.75ZM23.75 18.5C23.7484 19.8919 23.1948 21.2264 22.2106 22.2106C21.2264 23.1948 19.8919 23.7484 18.5 23.75H7.5C6.10809 23.7484 4.77364 23.1948 3.78941 22.2106C2.80518 21.2264 2.25155 19.8919 2.25 18.5V7.5C2.25155 6.10809 2.80518 4.77364 3.78941 3.78941C4.77364 2.80518 6.10809 2.25155 7.5 2.25H18.5C19.8919 2.25155 21.2264 2.80518 22.2106 3.78941C23.1948 4.77364 23.7484 6.10809 23.75 7.5V18.5ZM20.75 6.5C20.75 6.74723 20.6767 6.9889 20.5393 7.19446C20.402 7.40002 20.2068 7.56024 19.9784 7.65485C19.7499 7.74946 19.4986 7.77421 19.2561 7.72598C19.0137 7.67775 18.7909 7.5587 18.6161 7.38388C18.4413 7.20907 18.3223 6.98634 18.274 6.74386C18.2258 6.50139 18.2505 6.25005 18.3451 6.02165C18.4398 5.79324 18.6 5.59801 18.8055 5.46066C19.0111 5.32331 19.2528 5.25 19.5 5.25C19.8314 5.2504 20.1491 5.38222 20.3834 5.61656C20.6178 5.85089 20.7496 6.1686 20.75 6.5Z" fill="white"/>
</svg>
