<svg width="32" height="32" viewBox="0 0 32 32" fill="none" xmlns="http://www.w3.org/2000/svg">
<path d="M19.515 11.9517C18.837 11.9517 18.335 12.1227 17.942 12.3387C17.879 12.1147 17.672 11.9507 17.428 11.9997H14.444C14.149 11.9507 13.91 12.1897 14.001 12.4997V23.4997C13.91 23.7797 14.149 24.0197 14.444 23.9997H17.428C17.723 24.0197 17.962 23.7797 17.962 23.4847L17.961 16.8367C17.96 16.8337 17.949 16.5157 18.15 16.2967C18.311 16.1227 18.588 16.0337 18.971 16.0337C19.609 16.0337 19.893 16.2947 19.999 16.8787V23.4847C19.894 23.7797 20.133 24.0197 20.428 23.9997H23.573C23.868 24.0197 24.107 23.7797 24.001 23.4847V16.6567C24.106 13.1847 21.633 11.9517 19.515 11.9517ZM23.038 22.9997H20.962V16.8787C20.962 15.6977 20.199 14.9657 18.972 14.9657C18.278 14.9657 17.738 15.1697 17.366 15.5717C16.849 16.1317 16.889 16.8417 17 16.9997V22.9997H14.978V13.0197H16.894V13.3557C16.8932 13.4558 16.9207 13.554 16.9733 13.6392C17.0258 13.7244 17.1014 13.793 17.1912 13.8372C17.281 13.8814 17.3815 13.8993 17.481 13.889C17.5806 13.8786 17.6752 13.8404 17.754 13.7787L17.894 13.6707C18.299 13.3517 18.718 13.0207 19.516 13.0207C20.342 13.0207 23.039 13.2837 23.039 16.6577V22.9997H23.038Z" fill="white"/>
<path d="M11 6.96582C9.878 6.96582 8.966 7.87782 8.966 8.99982C8.966 10.1218 9.878 11.0338 11 11.0338C12.122 11.0338 13.034 10.1218 13.034 8.99982C13.034 7.87782 12.122 6.96582 11 6.96582ZM11 9.96582C10.468 9.96582 10.034 9.53182 10.034 8.99982C10.034 8.46782 10.468 8.03382 11 8.03382C11.532 8.03382 11.966 8.46782 11.966 8.99982C11.966 9.53182 11.532 9.96582 11 9.96582Z" fill="white"/>
<path d="M12.428 11.9507H9.46C9.165 11.9507 8.926 12.1897 9 12.4997V23.4997C8.926 23.7797 9.165 24.0197 9.46 23.9997H12.428C12.723 24.0197 12.962 23.7797 12.962 23.4847V12.4847C12.962 12.3431 12.9057 12.2072 12.8056 12.1071C12.7055 12.0069 12.5696 11.9507 12.428 11.9507ZM12 22.9997H9.994V13.0197H12V22.9997Z" fill="white"/>
<path d="M16 -0.0341797C7.158 -0.0341797 -0.0339966 7.15782 -0.0339966 15.9998C-0.0339966 24.8418 7.158 32.0338 16 32.0338C24.842 32.0338 32.034 24.8418 32.034 15.9998C32.034 7.15782 24.842 -0.0341797 16 -0.0341797ZM16 30.9658C7.748 30.9658 1.034 24.2518 1.034 15.9998C1.034 7.74782 7.748 1.03382 16 1.03382C24.252 1.03382 30.966 7.74782 30.966 15.9998C30.966 24.2518 24.252 30.9658 16 30.9658Z" fill="white"/>
</svg>
