<svg width="32" height="32" viewBox="0 0 32 32" fill="none" xmlns="http://www.w3.org/2000/svg">
<path fill-rule="evenodd" clip-rule="evenodd" d="M5.1493 4.94145C6.45688 5.8347 7.86764 6.54752 9.34295 7.08876C10.2263 4.59387 11.4566 2.22421 12.997 0.287109C9.8213 0.892902 6.97606 2.43773 4.76309 4.62366L5.1493 4.94145Z" fill="white"/>
<path fill-rule="evenodd" clip-rule="evenodd" d="M8.8425 15.4485H15.4483V9.35907C13.5973 9.30942 11.7793 9.02362 10.0359 8.49121C9.30981 10.8438 8.90153 13.2576 8.8425 15.4485Z" fill="white"/>
<path fill-rule="evenodd" clip-rule="evenodd" d="M21.9638 8.49072C20.2198 9.02369 18.4024 9.30948 16.5519 9.35859V15.4485H23.1577C23.0987 13.2571 22.6899 10.8433 21.9638 8.49072Z" fill="white"/>
<path fill-rule="evenodd" clip-rule="evenodd" d="M15.4483 8.25533V0.0136719C15.1752 0.0230512 14.9038 0.0396029 14.6345 0.0622236C12.8045 2.02084 11.3672 4.64815 10.3813 7.44429C12.0116 7.93808 13.7143 8.20622 15.4483 8.25533Z" fill="white"/>
<path fill-rule="evenodd" clip-rule="evenodd" d="M27.2602 4.64573C25.0439 2.44766 22.1898 0.895109 19.0042 0.287109C20.5429 2.22366 21.7733 4.59166 22.656 7.08546C24.1407 6.5398 25.5636 5.81925 26.8894 4.91221L27.2602 4.64573Z" fill="white"/>
<path fill-rule="evenodd" clip-rule="evenodd" d="M23.1588 23.3705C24.6843 23.9427 26.1469 24.6908 27.5124 25.6254L28.2733 26.2505C30.4873 23.6044 31.8606 20.234 31.9858 16.5518H24.2606C24.2054 18.7129 23.8335 21.0627 23.1588 23.3705Z" fill="white"/>
<path fill-rule="evenodd" clip-rule="evenodd" d="M8.99767 8.13241C7.41588 7.55421 5.89974 6.78896 4.48788 5.82234L4.00622 5.42676C1.62939 8.11972 0.144705 11.6143 0.0139465 15.4483H7.73919C7.79877 13.131 8.22912 10.5981 8.99767 8.13241Z" fill="white"/>
<path fill-rule="evenodd" clip-rule="evenodd" d="M16.5518 8.25526C18.2842 8.20616 19.9851 7.93802 21.6177 7.44202C20.6323 4.64699 19.1956 2.02078 17.3661 0.0621602C17.0963 0.0395395 16.8249 0.0229877 16.5518 0.0141602V8.25526Z" fill="white"/>
<path fill-rule="evenodd" clip-rule="evenodd" d="M15.4483 31.9862V23.1934C13.6547 23.2436 11.8936 23.5305 10.208 24.0601C11.1956 27.04 12.6963 29.8632 14.6345 31.9376C14.9038 31.9608 15.1752 31.9768 15.4483 31.9862Z" fill="white"/>
<path fill-rule="evenodd" clip-rule="evenodd" d="M9.17435 24.4224C7.75145 24.9608 6.38649 25.6632 5.11035 26.536L4.42511 27.0287C6.68332 29.3973 9.65656 31.0756 12.9967 31.7128C11.3564 29.6494 10.067 27.0955 9.17435 24.4224Z" fill="white"/>
<path fill-rule="evenodd" clip-rule="evenodd" d="M26.8508 26.5072C25.5934 25.6476 24.2411 24.9535 22.8265 24.4194C21.9344 27.0936 20.6444 29.6487 19.0031 31.7132C22.3239 31.0798 25.2822 29.417 27.5355 27.0699L26.8508 26.5072Z" fill="white"/>
<path fill-rule="evenodd" clip-rule="evenodd" d="M8.84153 23.3716C8.16677 21.0632 7.79436 18.7134 7.73919 16.5518H0.0139465C0.139188 20.2113 1.49477 23.5636 3.68512 26.2025L4.47684 25.6331C5.84788 24.6952 7.31381 23.9449 8.84153 23.3716Z" fill="white"/>
<path fill-rule="evenodd" clip-rule="evenodd" d="M27.5232 5.81504C26.1058 6.78497 24.5863 7.55186 23.0023 8.13173C23.7709 10.5979 24.2012 13.1309 24.2608 15.4481H31.9861C31.8559 11.6286 30.3811 8.14607 28.0203 5.45752L27.5232 5.81504Z" fill="white"/>
<path fill-rule="evenodd" clip-rule="evenodd" d="M16.5518 16.5518V22.0894C18.4585 22.1402 20.3294 22.4436 22.1203 23.0064C22.7526 20.8138 23.1029 18.5865 23.1575 16.5518H16.5518Z" fill="white"/>
<path fill-rule="evenodd" clip-rule="evenodd" d="M15.4483 16.5518H8.8425C8.89712 18.5871 9.24746 20.8144 9.87974 23.0069C11.6717 22.4436 13.5426 22.1402 15.4483 22.0894V16.5518Z" fill="white"/>
<path fill-rule="evenodd" clip-rule="evenodd" d="M16.5518 23.1929V31.9862C16.8249 31.9769 17.0963 31.9603 17.3656 31.9377C19.3043 29.8627 20.8056 27.0384 21.7926 24.058C20.1098 23.5305 18.3482 23.2436 16.5518 23.1929Z" fill="white"/>
</svg>
