<svg width="96" height="22" viewBox="0 0 96 22" fill="none" xmlns="http://www.w3.org/2000/svg">
<g clip-path="url(#clip0_994_14824)">
<path d="M29.977 3.35125C29.6246 2.04233 28.5925 1.01029 27.2836 0.657882C24.8923 0.00341797 15.3271 0.00341797 15.3271 0.00341797C15.3271 0.00341797 5.76182 0.00341792 3.37051 0.63271C2.08675 0.985117 1.02954 2.04233 0.677144 3.35125C0.0478516 5.74256 0.0478516 10.7014 0.0478516 10.7014C0.0478516 10.7014 0.0478516 15.6854 0.677144 18.0515C1.02954 19.3605 2.06159 20.3925 3.37051 20.7449C5.78699 21.3994 15.3271 21.3994 15.3271 21.3994C15.3271 21.3994 24.8923 21.3994 27.2836 20.77C28.5925 20.4176 29.6246 19.3856 29.977 18.0767C30.6063 15.6854 30.6062 10.7266 30.6062 10.7266C30.6062 10.7266 30.6315 5.74256 29.977 3.35125Z" fill="#FF0000"/>
<path d="M12.2812 6.12012V15.2826L20.2355 10.7014L12.2812 6.12012Z" fill="white"/>
<path d="M44.4255 19.4862C43.8214 19.0834 43.3935 18.4541 43.1418 17.5731C42.8901 16.7173 42.7642 15.5594 42.7642 14.1497V12.2116C42.7642 10.7768 42.9152 9.61891 43.1921 8.73787C43.4942 7.85687 43.9473 7.22757 44.5514 6.82482C45.1807 6.42208 45.9862 6.2207 46.993 6.2207C47.9747 6.2207 48.7802 6.42208 49.3843 6.82482C49.9885 7.22757 50.4164 7.88204 50.6933 8.73787C50.9702 9.59369 51.1212 10.7516 51.1212 12.2116V14.1497C51.1212 15.5846 50.9953 16.7173 50.7185 17.5983C50.4416 18.4541 50.0137 19.1086 49.4096 19.5113C48.8054 19.9141 47.9747 20.1154 46.9427 20.1154C45.8855 20.0903 45.0296 19.8889 44.4255 19.4862ZM47.8237 17.3717C47.9999 16.9439 48.0754 16.2138 48.0754 15.2322V11.0537C48.0754 10.0971 47.9999 9.39231 47.8237 8.93925C47.6475 8.48615 47.3706 8.28478 46.9427 8.28478C46.54 8.28478 46.2379 8.51132 46.0869 8.93925C45.9107 9.39231 45.8351 10.0971 45.8351 11.0537V15.2322C45.8351 16.2138 45.9107 16.9439 46.0869 17.3717C46.2379 17.7997 46.54 18.0262 46.9678 18.0262C47.3706 18.0262 47.6475 17.8248 47.8237 17.3717Z" fill="#282828"/>
<path d="M90.8926 14.175V14.8546C90.8926 15.7104 90.9177 16.3649 90.9681 16.7929C91.0184 17.2208 91.1191 17.548 91.2953 17.7242C91.4464 17.9256 91.6981 18.0263 92.0505 18.0263C92.5036 18.0263 92.8057 17.8501 92.9818 17.4977C93.1581 17.1453 93.2335 16.5663 93.2588 15.7357L95.8509 15.8867C95.8762 16.0125 95.8762 16.1635 95.8762 16.3649C95.8762 17.5984 95.5491 18.5297 94.8694 19.1338C94.1897 19.7379 93.2335 20.04 92.0002 20.04C90.515 20.04 89.483 19.5618 88.8788 18.6304C88.2747 17.6991 87.9727 16.2642 87.9727 14.3008V11.9599C87.9727 9.94614 88.2747 8.4862 88.904 7.55485C89.5333 6.6235 90.5905 6.17041 92.0756 6.17041C93.1077 6.17041 93.9131 6.37179 94.4672 6.74936C95.0203 7.12693 95.3981 7.73106 95.625 8.51138C95.8509 9.31688 95.9522 10.4244 95.9522 11.8341V14.1247H90.8926V14.175ZM91.2701 8.53655C91.1191 8.73792 91.0184 9.03998 90.9681 9.46792C90.9177 9.89579 90.8926 10.5503 90.8926 11.4313V12.3879H93.1077V11.4313C93.1077 10.5755 93.0825 9.92101 93.0322 9.46792C92.9818 9.01481 92.856 8.71275 92.705 8.53655C92.5539 8.36034 92.3022 8.25967 92.0002 8.25967C91.6478 8.23449 91.4212 8.33518 91.2701 8.53655Z" fill="#282828"/>
<path d="M37.0752 13.9238L33.6519 1.51416H36.6473L37.8555 7.12744C38.1576 8.51189 38.3842 9.69493 38.5352 10.6767H38.6107C38.7114 9.97186 38.938 8.81395 39.2904 7.15261L40.5489 1.51416H43.5444L40.0706 13.9238V19.8643H37.1004V13.9238H37.0752Z" fill="#282828"/>
<path d="M60.8625 6.47266V19.8892H58.4963L58.2446 18.253H58.1691C57.5399 19.4864 56.5581 20.1157 55.2744 20.1157C54.3933 20.1157 53.7389 19.8136 53.311 19.2347C52.883 18.6558 52.6816 17.7496 52.6816 16.491V6.47266H55.7023V16.3148C55.7023 16.9189 55.7778 17.3469 55.9036 17.5986C56.0295 17.8503 56.256 17.9761 56.5581 17.9761C56.8098 17.9761 57.0615 17.9006 57.3133 17.7244C57.565 17.5733 57.7412 17.372 57.8419 17.1203V6.47266H60.8625Z" fill="#282828"/>
<path d="M76.3429 6.47266V19.8892H73.9768L73.725 18.253H73.6496C73.0202 19.4864 72.0386 20.1157 70.7549 20.1157C69.8738 20.1157 69.2193 19.8136 68.7915 19.2347C68.3635 18.6558 68.1621 17.7496 68.1621 16.491V6.47266H71.1827V16.3148C71.1827 16.9189 71.2583 17.3469 71.3841 17.5986C71.51 17.8503 71.7365 17.9761 72.0386 17.9761C72.2903 17.9761 72.542 17.9006 72.7937 17.7244C73.0455 17.5733 73.2216 17.372 73.3223 17.1203V6.47266H76.3429Z" fill="#282828"/>
<path d="M69.0688 3.95581H66.0734V19.8643H63.1282V3.95581H60.1328V1.51416H69.0688V3.95581Z" fill="#282828"/>
<path d="M86.3361 8.61204C86.1599 7.75619 85.8579 7.15208 85.4551 6.7745C85.0524 6.39692 84.4734 6.19556 83.7686 6.19556C83.2148 6.19556 82.6862 6.34658 82.2079 6.67381C81.7297 6.97587 81.3521 7.4038 81.1003 7.90723H81.0752V0.833984H78.1553V19.8637H80.6473L80.9493 18.6052H81.0249C81.2514 19.0582 81.6038 19.4106 82.0821 19.6876C82.5603 19.9393 83.0637 20.0903 83.6427 20.0903C84.6747 20.0903 85.4048 19.612 85.883 18.6807C86.3613 17.7494 86.6129 16.2642 86.6129 14.2757V12.1612C86.5878 10.6258 86.5122 9.44267 86.3361 8.61204ZM83.5672 14.0743C83.5672 15.056 83.5168 15.8111 83.4414 16.3649C83.3658 16.9187 83.2148 17.3214 83.0386 17.548C82.8372 17.7745 82.5855 17.9004 82.2835 17.9004C82.0317 17.9004 81.8051 17.8501 81.6038 17.7242C81.4024 17.5984 81.2262 17.4221 81.1003 17.1956V9.5937C81.201 9.24132 81.3773 8.93926 81.629 8.68754C81.8807 8.46101 82.1576 8.33515 82.4345 8.33515C82.7366 8.33515 82.9883 8.46101 83.1393 8.68754C83.3155 8.93926 83.4161 9.34201 83.4917 9.89577C83.5672 10.4748 83.5924 11.2803 83.5924 12.3123V14.0743H83.5672Z" fill="#282828"/>
</g>
<defs>
<clipPath id="clip0_994_14824">
<rect width="96" height="21.4688" fill="white"/>
</clipPath>
</defs>
</svg>
